<svg width="327" height="449" viewBox="0 0 327 449" fill="none" xmlns="http://www.w3.org/2000/svg">
<path d="M163.78 448.93C135.46 448.93 107.15 448.88 78.84 449C75.54 449.01 73.93 448.43 73.84 444.69C73.74 440.58 72.96 436.47 72.23 432.41C71.74 429.71 72.52 428.59 75.23 427.71C86.3 424.12 96.84 419.34 106.1 412.12C108.23 410.46 110.3 408.71 112.21 406.81C124.11 394.94 125.04 387.99 116.49 373.55C99.06 344.12 83.84 313.64 72.7 281.24C72 279.19 70.55 277.8 69.44 276.1C40.74 232.15 18.62 185.31 6.98 133.89C1.19 108.29 -1.89001 82.4499 3.43999 56.3699C7.71999 35.4099 17.25 17.6999 37.34 7.80992C54.03 -0.400084 71.65 -1.41008 89.34 3.80992C105.72 8.63992 115.37 22.3899 115.98 39.9799C116.56 56.7699 111.53 72.2399 104.99 87.3599C102.81 92.3999 102.78 92.3999 108.02 92.3999C145.24 92.3999 182.47 92.3499 219.69 92.4699C223.7 92.4799 224.57 91.8999 222.75 87.8999C216.19 73.5099 211.29 58.6099 211.39 42.5299C211.53 19.0099 225.66 3.71992 249.05 1.44992C268.44 -0.440084 286.56 2.52992 301.82 15.5699C316.12 27.7899 322.37 44.2799 325.02 62.3199C329.27 91.1999 324.69 119.38 317.22 147.16C304.78 193.41 284.29 236.03 258 275.93C256.34 278.45 254.85 280.94 253.85 283.79C242.78 315.2 227.93 344.8 211.01 373.41C202.32 388.11 203.2 394.98 215.42 407.01C225.49 416.92 237.86 422.99 251.15 427.23C254.76 428.38 255.92 429.93 255 433.65C254.16 437.02 253.55 440.57 253.63 444.02C253.73 448.53 251.59 449.01 247.79 448.99C219.77 448.86 191.78 448.93 163.78 448.93ZM208.33 428.18C206.24 426.32 204.87 425.25 203.67 424.01C200.79 421.05 197.75 418.21 195.21 414.97C182.34 398.55 181.19 384.03 191.72 366.04C204.96 343.42 217.34 320.39 227.32 296.12C244.17 255.14 254.31 212.55 258.07 168.42C258.48 163.66 257.97 160.71 252.76 158.24C238.8 151.62 231.15 140.45 232.02 124.39C232.14 122.17 231.78 119.9 232.09 117.72C232.67 113.56 230.86 112.84 227.05 112.86C187.14 113 147.23 112.93 107.31 112.98C103.53 112.98 98.63 111.35 96.25 113.65C93.64 116.17 95.29 121.18 95.43 125.06C95.92 138.78 90.52 150.04 78.51 155.81C69.24 160.26 69.02 165.8 69.85 174.33C74.2 219.11 85.35 262.05 103.1 303.33C112.46 325.09 123.87 345.77 135.76 366.23C146.29 384.35 144.92 399.16 131.8 415.56C128.91 419.17 125.64 422.4 122.17 425.47C121.36 426.19 119.74 426.52 120.13 428.2C149.23 428.18 178.26 428.18 208.33 428.18ZM274.5 201.2C276.86 200.6 276.95 199.17 277.43 198.08C286.98 176.74 294.82 154.8 300.04 132C305.47 108.31 308.76 84.3999 303.89 60.1999C300.3 42.3399 291.93 28.0799 272.84 22.9399C266.62 21.2699 260.28 21.1699 253.91 21.4599C237.28 22.2099 229.9 31.1399 231.88 47.7299C233.31 59.7099 236.05 71.6699 242.5 81.5499C251.76 95.7099 253.71 110.65 252.42 126.71C252.02 131.66 254.36 135.22 258.22 138C262.15 140.83 266.6 142.42 271.22 143.7C276.56 145.18 279.19 148.64 279.17 154.11C279.16 157.13 278.91 160.15 278.71 163.16C277.83 175.77 276.74 188.35 274.5 201.2ZM51.82 201.67C52.47 198.09 51.94 195.67 51.62 193.25C49.94 180.64 48.76 167.97 48.24 155.26C47.97 148.55 50.48 145.31 56.9 143.52C60.58 142.49 64.12 141.17 67.42 139.19C72.63 136.07 75.41 131.83 75.05 125.48C74.72 119.77 75.23 114.02 74.91 108.31C74.6 102.73 75.66 97.9199 78.99 93.1999C83.38 86.9699 86.28 79.8399 89.03 72.7299C92.24 64.4099 94.66 55.8799 95.61 46.9699C96.92 34.6599 92.99 26.1599 83.43 23.4299C64 17.8699 36.14 21.0699 26.16 50.3999C21.67 63.5899 20.82 77.1499 21.44 90.8599C22.83 121.68 31.23 150.9 42.22 179.48C44.97 186.65 47.64 193.87 51.82 201.67Z" fill="currentColor"/>
</svg>
