<svg width="494" height="450" viewBox="0 0 494 450" fill="none" xmlns="http://www.w3.org/2000/svg">
<path d="M399.31 449.91C297.85 449.91 196.38 449.91 94.92 449.91C94.98 449.14 95.11 448.36 95.11 447.59C95.12 354.15 95.1 260.71 95.2 167.27C95.2 163.23 94.1399 162.95 90.7199 164.28C72.5699 171.35 54.33 178.17 36.18 185.24C33.34 186.35 32.1799 185.97 31.2199 182.98C21.3399 152.12 11.4 121.28 1.29997 90.4899C0.299968 87.4399 1.35001 86.4499 3.78001 85.2699C14.43 80.0699 24.93 74.5599 35.62 69.4299C66.25 54.7299 95.87 37.9699 127.45 25.1999C153.88 14.5099 180.94 6.40986 209.29 2.78986C214.26 2.15986 219.48 2.75986 224.17 0.359863C239.16 0.359863 254.14 0.359863 269.13 0.359863C269.57 1.53986 270.63 1.23986 271.5 1.29986C313.17 4.42986 352.14 17.1699 389.53 35.0799C415.68 47.5999 441.45 60.9099 467.45 73.7299C476.23 78.0599 484.7 83.0699 493.91 86.5199C493.91 87.1399 493.91 87.7699 493.91 88.3899C493 88.9499 493.01 89.9699 492.73 90.8399C482.88 121.23 472.93 151.58 463.3 182.04C462.04 186.03 460.66 186.28 457.2 184.93C439.79 178.12 422.29 171.5 404.83 164.82C399.1 162.63 399.09 162.62 399.09 168.62C399.09 260.67 399.09 352.73 399.1 444.78C399.1 446.49 399.24 448.2 399.31 449.91ZM381.26 269.33C381.26 219.54 381.26 169.74 381.26 119.95C381.26 106 381.26 106.08 395.41 106.52C398.27 106.61 399.18 107.49 399.14 110.33C399 119.69 399.22 129.06 399.01 138.42C398.94 141.57 399.87 143.08 402.95 144.13C417.56 149.12 432.12 154.27 446.6 159.65C450.2 160.99 451.59 160.64 452.8 156.73C458.61 137.98 464.66 119.3 470.89 100.69C472.12 97.0199 471.66 95.3699 468.02 93.5799C438.47 79.0699 409.15 64.0899 379.53 49.7299C365.93 43.1399 351.71 37.8499 337.41 32.8699C335.56 32.2299 333.88 31.1799 332.43 34.0299C324.74 49.1599 311.9 58.6099 296.55 64.6099C266.21 76.4699 235.37 76.9399 204.4 67.0999C189.07 62.2299 175.77 54.1799 165.81 41.1199C163.56 38.1699 163.29 32.7299 159.15 32.4999C155.55 32.2999 151.79 34.7099 148.13 36.0699C105.29 51.9699 65.76 74.8699 24.68 94.4999C22.15 95.7099 22.28 97.1799 22.99 99.3699C29.31 118.78 35.61 138.19 41.76 157.65C42.73 160.71 44.04 160.99 46.81 159.99C61.77 154.56 76.76 149.23 91.8 144.02C94.51 143.08 95.35 141.65 95.29 138.9C95.12 132.04 95.23 125.16 95.23 118.3C95.23 106.6 95.23 106.6 106.89 106.61C113.01 106.61 113.01 106.61 113.01 112.55C113.01 216.67 113.01 320.78 113.01 424.9C113.01 426.15 113.12 427.41 112.99 428.64C112.7 431.48 113.83 432.44 116.71 432.4C125.92 432.25 135.13 432.2 144.34 432.42C147.8 432.5 148.51 431.13 148.45 428.03C148.29 419.6 148.27 411.17 148.45 402.74C148.54 398.43 146.48 392.88 149.38 390.15C152.22 387.48 157.74 389.71 162.04 389.27C165.35 388.93 166.26 390.21 166.21 393.46C166.03 405.01 166.24 416.56 166.07 428.11C166.02 431.28 166.78 432.47 170.18 432.42C182.35 432.23 194.53 432.23 206.7 432.42C209.95 432.47 210.6 431.24 210.56 428.35C210.42 419.77 210.43 411.18 210.55 402.6C210.6 398.42 208.78 393.07 211.3 390.36C214.08 387.38 219.58 389.87 223.85 389.29C227.78 388.76 228.5 390.6 228.45 394.09C228.27 405.48 228.45 416.88 228.34 428.27C228.31 431.15 228.96 432.46 232.21 432.42C245.16 432.26 258.12 432.26 271.08 432.42C274.25 432.46 275.03 431.34 274.97 428.37C274.8 419.79 274.77 411.2 274.97 402.62C275.07 398.33 272.97 392.81 275.95 390.07C278.64 387.6 284.03 389.68 288.19 389.28C291.64 388.95 292.78 390.09 292.71 393.67C292.48 405.06 292.74 416.46 292.55 427.85C292.49 431.23 293.3 432.53 296.93 432.43C305.98 432.18 315.04 432.21 324.09 432.42C327.45 432.5 328.28 431.35 328.23 428.14C328.06 416.44 328.24 404.73 328.11 393.02C328.08 390.19 328.91 389.08 331.81 389.26C335.08 389.46 338.38 389.53 341.64 389.24C345.26 388.92 346.13 390.36 346.07 393.78C345.88 405.17 346.13 416.57 345.92 427.96C345.85 431.53 347.01 432.5 350.47 432.41C358.89 432.18 367.34 432.07 375.75 432.44C380.36 432.65 381.38 431.13 381.36 426.7C381.2 374.22 381.26 321.78 381.26 269.33ZM247.42 17.9599C225.34 17.9099 203.59 20.4999 182.09 25.6099C177.81 26.6299 178.4 28.0099 180.41 30.6999C185.97 38.1399 193.15 43.5699 201.62 47.0899C231.39 59.4299 261.37 59.4499 291.28 47.6999C300.24 44.1799 307.9 38.5699 313.73 30.6799C315.95 27.6799 316.12 26.3099 311.84 25.3299C290.64 20.4599 269.19 17.9099 247.42 17.9599Z" fill="currentColor"/>
<path d="M339.38 224.02C339.26 243.26 337.26 264.25 328.17 283.97C326.01 288.66 323.35 293.05 319.86 296.9C308.34 309.59 292.49 309.36 281.39 296.24C275.24 288.97 271.38 280.45 268.87 271.37C259.8 238.5 260.02 205.8 271.29 173.43C273.55 166.93 276.85 160.88 281.39 155.62C293.09 142.06 309.32 142.19 320.76 155.96C327.37 163.91 331.05 173.33 333.82 183.13C337.4 195.81 338.81 208.8 339.38 224.02ZM321.53 223.16C321.68 215.67 320.7 205.27 318.5 195.02C316.46 185.52 313.69 176.24 307.8 168.28C302.81 161.53 298.97 161.6 293.9 168.38C291.17 172.03 289.13 176.08 287.66 180.37C278.1 208.41 278.07 236.72 285.58 265.18C287.3 271.69 289.85 277.91 293.9 283.37C299.02 290.28 302.97 290.22 308.09 283.23C310.97 279.29 313.01 274.9 314.65 270.34C319.8 256.06 321.49 241.24 321.53 223.16Z"fill="currentColor"/>
<path d="M197.52 204.75C192.73 211.83 187.85 218.86 183.19 226.03C181.74 228.25 180.14 229.14 177.48 229.04C171.93 228.84 166.38 228.98 159.83 228.98C178.69 200.8 197 173.44 215.49 145.8C216.85 147.88 216.3 149.63 216.3 151.26C216.35 195.28 216.35 239.3 216.39 283.31C216.4 290.54 215.75 289.64 222.53 289.67C229.4 289.71 236.27 289.8 243.13 289.62C245.98 289.55 247.06 290.45 246.89 293.34C246.69 296.76 246.68 300.22 246.89 303.64C247.08 306.65 245.73 307.29 243.03 307.28C219.3 307.21 195.58 307.19 171.85 307.29C168.77 307.3 167.67 306.37 167.96 303.29C168.37 298.97 166.21 293.41 168.79 290.62C171.43 287.77 177.05 289.89 181.36 289.72C186.04 289.54 190.72 289.64 195.41 289.69C197.36 289.71 198.69 289.41 198.68 286.95C198.63 259.69 198.65 232.42 198.65 205.16C198.28 205.02 197.9 204.88 197.52 204.75Z"fill="currentColor"/>
</svg>
