<svg width="255" height="450" viewBox="0 0 255 450" fill="none" xmlns="http://www.w3.org/2000/svg">
<path d="M137.2 0C144.59 2.01 152.31 2.66 159.54 5.38C193.45 18.13 215.35 41.72 224.2 77.05C225 80.24 225.64 82.02 229.91 82.09C240.37 82.27 247.15 88.4 250.93 97.9C255.29 108.88 254.36 120.34 253.53 131.7C250.77 169.48 236.88 203.72 219.56 236.82C208.79 257.41 196.49 277.15 186.04 297.91C180.62 308.69 176.31 319.75 176.57 332.17C176.93 349.17 183.37 363.77 194.07 376.52C198.11 381.33 199.91 386.14 199.77 392.39C199.43 407.45 199.67 422.53 199.66 437.59C199.65 446.47 196.63 449.55 187.89 449.55C147.36 449.56 106.84 449.56 66.31 449.55C57.73 449.55 54.6 446.46 54.59 437.98C54.57 422.03 54.72 406.08 54.5 390.14C54.43 385.25 55.98 381.48 59.13 377.86C68.01 367.64 74.1 355.97 76.68 342.58C79.78 326.54 75.44 311.96 68.21 297.84C57.68 277.28 45.58 257.6 34.87 237.15C20.73 210.14 8.66 182.32 3.35 152.06C0.639999 136.63 -1.42 121.07 1.22 105.42C2.9 95.47 7.32 87.15 17.54 83.27C19.91 82.37 22.47 81.65 24.8 81.99C28.78 82.57 29.23 80.34 29.97 77.44C39.95 38.24 64.81 13.67 103.56 2.79C107.71 1.63 112.14 1.85 116.13 0.01C123.15 0 130.18 0 137.2 0ZM156.72 136.02C166.2 117.97 186.97 112.21 201.97 121.26C203.83 122.38 204.37 121.68 204.88 119.81C207.88 108.86 209.72 97.9 207.59 86.49C201.92 56.19 185.1 34.59 156.34 23.67C126.26 12.25 97.86 17.18 73.53 38.23C46.56 61.58 37.67 95.01 53.62 132.22C55.93 137.61 58.54 142.81 62.48 147.25C67.49 152.9 72.37 154.11 79.34 151.29C85.63 148.75 90.43 144.27 94.69 139.19C101.73 130.79 108.44 122.1 115.64 113.84C122.17 106.34 129.82 106.04 137.13 112.49C138.66 113.84 140.12 115.3 141.4 116.88C146.46 123.1 151.43 129.38 156.72 136.02ZM95.8 325.61C97.85 324.79 98.69 323.17 99.8 321.88C111.84 307.88 124.9 294.94 138.87 282.86C154.9 268.99 171.2 255.42 186.12 240.3C200.54 225.69 212.8 209.43 220.7 190.57C230.51 167.11 236.17 142.49 235.86 116.82C235.81 112.16 235.74 107.43 233.38 103.17C232.52 101.62 231.57 99.98 229.48 100.17C227.34 100.37 226.88 102.3 226.3 103.92C225.96 104.87 225.81 105.91 225.71 106.92C224.66 117.76 221.82 128.16 217.76 138.22C216.94 140.25 217.01 142.22 217.27 144.24C219.01 157.33 214.02 167.6 203.24 174.62C192.23 181.79 180.38 181.93 169.45 174.57C161.65 169.32 154.62 162.88 147.51 156.66C139.6 149.74 134.12 140.85 128.74 131.97C127.17 129.38 126.34 128.49 124.08 131.47C117.02 140.78 110.25 150.37 101.35 158.12C99.64 159.61 100.08 161.15 100.58 162.87C101.85 167.21 103.21 171.53 104.34 175.91C111.25 202.65 116.03 229.66 112.6 257.4C110.55 273.98 105.45 289.36 91.82 300.47C90.68 301.4 90.09 302.39 90.68 303.87C93.49 310.8 94.83 318.1 95.8 325.61ZM178.08 273.95C175.62 274.31 174.73 275.75 173.57 276.75C165.58 283.61 157.7 290.6 149.66 297.4C118.73 323.55 94.64 355.37 73.27 389.45C71.07 392.97 72.63 395.7 76.61 395.7C110.26 395.71 143.9 395.71 177.55 395.7C181.6 395.7 183.05 393.13 181 389.52C180.36 388.39 179.38 387.46 178.58 386.41C165.52 369.13 157.54 350.08 158.37 328C158.95 312.53 165.18 298.86 172.06 285.41C173.95 281.7 175.92 278.05 178.08 273.95ZM82.4 285.61C83.11 284.33 83.37 283.61 83.84 283.07C91.57 274.08 94.08 263.12 94.92 251.82C96.94 224.49 91.73 198.03 84.47 171.86C83.78 169.37 82.55 169.13 80.32 169.68C74.97 170.99 69.58 170.9 64.29 169.34C52.77 165.93 46.01 157.17 40.37 147.41C32.54 133.87 29.48 118.88 27.59 103.57C27.42 102.17 27.72 100.52 25.68 100.13C23.85 99.79 22.52 100.58 21.56 102C19.54 104.99 18.81 108.4 18.63 111.95C17.14 141.65 24.66 169.53 35.75 196.69C45.61 220.83 59.05 243.12 71.51 265.92C74.91 272.16 78.39 278.38 82.4 285.61ZM127.1 413.57C113.5 413.57 99.9 413.55 86.3 413.58C81.92 413.59 76.06 412.06 73.56 414.27C70.68 416.81 73.03 422.82 72.57 427.29C72.22 430.72 73.39 431.79 76.92 431.74C92.71 431.55 108.51 431.66 124.3 431.66C141.85 431.66 159.4 431.53 176.95 431.76C180.96 431.81 182.09 430.57 181.72 426.8C181.42 423.76 181.43 420.64 181.72 417.6C182.04 414.25 180.82 413.46 177.56 413.49C160.73 413.66 143.91 413.57 127.1 413.57ZM185.91 135.01C178.57 135.01 172.45 141.09 172.47 148.37C172.49 155.42 178.82 161.64 186.05 161.71C193.54 161.78 199.64 155.88 199.6 148.61C199.56 141.09 193.45 135.01 185.91 135.01Z" fill="currentColor"/>
</svg>
