
<svg width="362" height="81" viewBox="0 0 362 81" fill="none" xmlns="http://www.w3.org/2000/svg">
<path d="M115.548 61.6375C112.42 61.6375 109.64 61.1785 107.209 60.2605C104.778 59.3255 102.721 58.0165 101.038 56.3335C99.372 54.6505 98.097 52.6615 97.213 50.3665C96.346 48.0715 95.9125 45.5555 95.9125 42.8185C95.9125 39.1125 96.669 35.84 98.182 33.001C99.712 30.145 101.897 27.918 104.736 26.32C107.575 24.705 110.983 23.8975 114.961 23.8975C116.236 23.8975 117.477 23.9825 118.684 24.1525C119.908 24.3055 121.064 24.518 122.152 24.79C123.24 25.045 124.252 25.3425 125.187 25.6825C126.122 26.0055 126.946 26.3455 127.66 26.7025L127.023 34.48C125.595 33.664 124.209 33.001 122.866 32.491C121.54 31.981 120.265 31.6155 119.041 31.3945C117.834 31.1565 116.695 31.0375 115.624 31.0375C114.06 31.0375 112.607 31.2925 111.264 31.8025C109.938 32.2955 108.773 33.0435 107.77 34.0465C106.767 35.0495 105.985 36.2905 105.424 37.7695C104.88 39.2315 104.608 40.923 104.608 42.844C104.608 44.493 104.838 46.0485 105.297 47.5105C105.773 48.9725 106.487 50.2645 107.439 51.3865C108.391 52.4915 109.598 53.3585 111.06 53.9875C112.539 54.6165 114.273 54.931 116.262 54.931C117.316 54.931 118.319 54.88 119.271 54.778C120.223 54.676 121.141 54.5145 122.025 54.2935C122.909 54.0725 123.776 53.8005 124.626 53.4775C125.493 53.1375 126.36 52.7295 127.227 52.2535L128.221 59.725C127.643 59.963 126.895 60.201 125.977 60.439C125.076 60.66 124.056 60.864 122.917 61.051C121.795 61.238 120.605 61.3825 119.347 61.4845C118.089 61.5865 116.823 61.6375 115.548 61.6375ZM120.341 59.878C120.341 57.974 120.341 56.308 120.341 54.88C120.341 53.452 120.341 52.0155 120.341 50.5705C120.341 48.9045 120.341 47.4255 120.341 46.1335C120.341 44.8415 120.341 43.524 120.341 42.181H128.221C128.221 43.524 128.221 44.8415 128.221 46.1335C128.221 47.4255 128.221 48.9045 128.221 50.5705C128.221 52.0155 128.221 53.452 128.221 54.88C128.221 56.291 128.221 57.906 128.221 59.725L120.341 59.878ZM146.505 61.6885C144.193 61.6885 142.179 61.323 140.462 60.592C138.762 59.861 137.351 58.8665 136.229 57.6085C135.124 56.3505 134.291 54.914 133.73 53.299C133.186 51.667 132.914 49.967 132.914 48.199C132.914 45.666 133.424 43.3965 134.444 41.3905C135.481 39.3675 136.994 37.778 138.983 36.622C140.989 35.449 143.445 34.8625 146.352 34.8625C148.596 34.8625 150.56 35.2025 152.243 35.8825C153.943 36.5455 155.354 37.489 156.476 38.713C157.615 39.92 158.465 41.3395 159.026 42.9715C159.587 44.5865 159.867 46.329 159.867 48.199C159.867 50.766 159.349 53.0695 158.312 55.1095C157.275 57.1325 155.762 58.739 153.773 59.929C151.784 61.102 149.361 61.6885 146.505 61.6885ZM146.48 55.4665C147.755 55.4665 148.8 55.1265 149.616 54.4465C150.449 53.7495 151.07 52.8485 151.478 51.7435C151.903 50.6385 152.115 49.457 152.115 48.199C152.115 46.703 151.877 45.428 151.401 44.374C150.925 43.303 150.262 42.487 149.412 41.926C148.562 41.365 147.576 41.0845 146.454 41.0845C145.196 41.0845 144.134 41.399 143.267 42.028C142.417 42.657 141.771 43.507 141.329 44.578C140.904 45.649 140.691 46.856 140.691 48.199C140.691 49.457 140.904 50.6385 141.329 51.7435C141.771 52.8485 142.417 53.7495 143.267 54.4465C144.134 55.1265 145.205 55.4665 146.48 55.4665ZM170.764 61.612C169.302 61.612 168.027 61.306 166.939 60.694C165.851 60.082 165.001 59.2235 164.389 58.1185C163.777 56.9965 163.471 55.6705 163.471 54.1405C163.471 52.6955 163.726 51.4885 164.236 50.5195C164.746 49.5335 165.4 48.7345 166.199 48.1225C167.015 47.5105 167.899 47.043 168.851 46.72C169.82 46.397 170.764 46.159 171.682 46.006L178.771 44.9095C178.805 43.9235 178.618 43.1585 178.21 42.6145C177.802 42.0535 177.207 41.6625 176.425 41.4415C175.66 41.2205 174.742 41.11 173.671 41.11C173.093 41.11 172.464 41.161 171.784 41.263C171.104 41.348 170.39 41.484 169.642 41.671C168.911 41.858 168.146 42.0875 167.347 42.3595C166.565 42.6315 165.774 42.963 164.975 43.354L164.618 36.8515C165.247 36.6305 165.97 36.401 166.786 36.163C167.602 35.925 168.486 35.7125 169.438 35.5255C170.39 35.3215 171.393 35.16 172.447 35.041C173.518 34.922 174.614 34.8625 175.736 34.8625C177.861 34.8625 179.672 35.177 181.168 35.806C182.681 36.418 183.837 37.387 184.636 38.713C185.435 40.039 185.834 41.773 185.834 43.915C185.834 44.748 185.834 45.768 185.834 46.975C185.834 48.182 185.834 49.2615 185.834 50.2135V52.636C185.834 53.928 185.834 55.2625 185.834 56.6395C185.834 57.9995 185.834 59.453 185.834 61H179.332L178.847 57.6085H178.261C177.802 58.2545 177.224 58.892 176.527 59.521C175.83 60.133 174.997 60.6345 174.028 61.0255C173.076 61.4165 171.988 61.612 170.764 61.612ZM173.798 55.7215C174.393 55.7215 174.988 55.5855 175.583 55.3135C176.178 55.0245 176.731 54.625 177.241 54.115C177.751 53.588 178.193 52.9675 178.567 52.2535V48.352C178.363 48.505 178.099 48.6495 177.776 48.7855C177.47 48.9045 177.011 49.0405 176.399 49.1935C175.804 49.3295 174.971 49.508 173.9 49.729C173.288 49.848 172.761 50.052 172.319 50.341C171.877 50.63 171.529 51.004 171.274 51.463C171.036 51.905 170.917 52.432 170.917 53.044C170.917 54.013 171.206 54.7015 171.784 55.1095C172.379 55.5175 173.05 55.7215 173.798 55.7215ZM191.666 61C191.666 59.181 191.666 57.4215 191.666 55.7215C191.666 54.0045 191.666 52.092 191.666 49.984V35.8315C191.666 33.7575 191.666 31.709 191.666 29.686C191.666 27.646 191.666 25.623 191.666 23.617L199.29 22.954C199.29 24.96 199.29 27.0255 199.29 29.1505C199.29 31.2585 199.29 33.4855 199.29 35.8315V49.984C199.29 52.092 199.29 54.0045 199.29 55.7215C199.29 57.4215 199.29 59.181 199.29 61H191.666Z" fill="#31A468"/>
<path d="M223.972 61.6375C220.844 61.6375 218.065 61.1785 215.634 60.2605C213.203 59.3255 211.146 58.0165 209.463 56.3335C207.797 54.6505 206.522 52.6615 205.638 50.3665C204.771 48.0715 204.337 45.5555 204.337 42.8185C204.337 39.1125 205.094 35.84 206.607 33.001C208.137 30.145 210.321 27.918 213.16 26.32C215.999 24.705 219.408 23.8975 223.386 23.8975C224.661 23.8975 225.902 23.9825 227.109 24.1525C228.333 24.3055 229.489 24.518 230.577 24.79C231.665 25.045 232.676 25.3425 233.611 25.6825C234.546 26.0055 235.371 26.3455 236.085 26.7025L235.447 34.48C234.019 33.664 232.634 33.001 231.291 32.491C229.965 31.981 228.69 31.6155 227.466 31.3945C226.259 31.1565 225.12 31.0375 224.049 31.0375C222.485 31.0375 221.031 31.2925 219.688 31.8025C218.362 32.2955 217.198 33.0435 216.195 34.0465C215.192 35.0495 214.41 36.2905 213.849 37.7695C213.305 39.2315 213.033 40.923 213.033 42.844C213.033 44.493 213.262 46.0485 213.721 47.5105C214.197 48.9725 214.911 50.2645 215.863 51.3865C216.815 52.4915 218.022 53.3585 219.484 53.9875C220.963 54.6165 222.697 54.931 224.686 54.931C225.74 54.931 226.743 54.88 227.695 54.778C228.647 54.676 229.565 54.5145 230.449 54.2935C231.333 54.0725 232.2 53.8005 233.05 53.4775C233.917 53.1375 234.784 52.7295 235.651 52.2535L236.646 59.725C236.068 59.963 235.32 60.201 234.402 60.439C233.501 60.66 232.481 60.864 231.342 61.051C230.22 61.238 229.03 61.3825 227.772 61.4845C226.514 61.5865 225.247 61.6375 223.972 61.6375ZM228.766 59.878C228.766 57.974 228.766 56.308 228.766 54.88C228.766 53.452 228.766 52.0155 228.766 50.5705C228.766 48.9045 228.766 47.4255 228.766 46.1335C228.766 44.8415 228.766 43.524 228.766 42.181H236.646C236.646 43.524 236.646 44.8415 236.646 46.1335C236.646 47.4255 236.646 48.9045 236.646 50.5705C236.646 52.0155 236.646 53.452 236.646 54.88C236.646 56.291 236.646 57.906 236.646 59.725L228.766 59.878ZM255.466 61.663C252.185 61.663 249.499 61.085 247.408 59.929C245.334 58.773 243.804 57.1835 242.818 55.1605C241.849 53.1375 241.364 50.817 241.364 48.199C241.364 45.581 241.823 43.269 242.741 41.263C243.659 39.257 245.028 37.693 246.847 36.571C248.683 35.432 250.961 34.8625 253.681 34.8625C255.993 34.8625 257.973 35.279 259.622 36.112C261.271 36.928 262.538 38.169 263.422 39.835C264.306 41.501 264.748 43.6005 264.748 46.1335C264.748 46.8135 264.731 47.417 264.697 47.944C264.663 48.471 264.603 48.998 264.518 49.525L257.99 47.0515C258.024 46.8305 258.05 46.601 258.067 46.363C258.084 46.125 258.092 45.904 258.092 45.7C258.092 43.983 257.684 42.64 256.868 41.671C256.069 40.685 255.032 40.192 253.757 40.192C252.788 40.192 251.93 40.481 251.182 41.059C250.434 41.62 249.847 42.4105 249.422 43.4305C248.997 44.4505 248.785 45.666 248.785 47.077V48.3265C248.785 49.8055 249.048 51.072 249.575 52.126C250.119 53.18 250.952 53.9875 252.074 54.5485C253.196 55.1095 254.633 55.39 256.384 55.39C257.064 55.39 257.846 55.3305 258.73 55.2115C259.631 55.0755 260.54 54.88 261.458 54.625C262.393 54.353 263.26 54.013 264.059 53.605L264.314 60.031C263.651 60.337 262.878 60.6175 261.994 60.8725C261.127 61.1105 260.141 61.2975 259.036 61.4335C257.931 61.5865 256.741 61.663 255.466 61.663ZM244.297 49.525V45.445L260.081 45.1135L264.518 46.363V49.525H244.297ZM269.56 61C269.56 59.181 269.56 57.4215 269.56 55.7215C269.56 54.0045 269.56 52.092 269.56 49.984V47.434C269.56 45.479 269.56 43.5155 269.56 41.5435C269.56 39.5715 269.56 37.574 269.56 35.551L275.961 35.1685L276.292 39.6055H276.93C277.508 38.7725 278.205 37.999 279.021 37.285C279.837 36.554 280.772 35.9675 281.826 35.5255C282.897 35.0835 284.112 34.8625 285.472 34.8625C288.022 34.8625 289.952 35.619 291.261 37.132C292.57 38.628 293.224 40.872 293.224 43.864C293.224 44.986 293.224 46.0315 293.224 47.0005C293.224 47.9525 293.224 48.947 293.224 49.984C293.224 52.058 293.224 53.962 293.224 55.696C293.224 57.413 293.224 59.181 293.224 61H285.625C285.625 59.181 285.625 57.4215 285.625 55.7215C285.625 54.0215 285.625 52.245 285.625 50.392V46.312C285.625 44.816 285.379 43.694 284.886 42.946C284.393 42.181 283.509 41.7985 282.234 41.7985C281.503 41.7985 280.831 41.9515 280.219 42.2575C279.607 42.5465 279.046 42.946 278.536 43.456C278.026 43.949 277.576 44.5015 277.185 45.1135V50.392C277.185 52.296 277.185 54.0895 277.185 55.7725C277.185 57.4385 277.185 59.181 277.185 61H269.56ZM299.198 61C299.198 59.181 299.198 57.4215 299.198 55.7215C299.198 54.0045 299.198 52.092 299.198 49.984V47.434C299.198 45.751 299.198 44.2465 299.198 42.9205C299.198 41.5775 299.198 40.3195 299.198 39.1465C299.198 37.9565 299.198 36.758 299.198 35.551L306.822 35.3215C306.822 36.5455 306.822 37.761 306.822 38.968C306.822 40.175 306.822 41.4585 306.822 42.8185C306.822 44.1785 306.822 45.717 306.822 47.434V49.984C306.822 52.092 306.822 54.0045 306.822 55.7215C306.822 57.4215 306.822 59.181 306.822 61H299.198ZM302.946 31.624C301.535 31.624 300.405 31.2925 299.555 30.6295C298.722 29.9495 298.305 28.853 298.305 27.34C298.305 25.98 298.722 24.943 299.555 24.229C300.405 23.498 301.552 23.1325 302.997 23.1325C304.442 23.1325 305.573 23.515 306.389 24.28C307.222 25.028 307.638 26.048 307.638 27.34C307.638 28.853 307.222 29.9495 306.389 30.6295C305.556 31.2925 304.408 31.624 302.946 31.624ZM320.532 61.6885C317.982 61.6885 316.053 60.932 314.744 59.419C313.435 57.906 312.78 55.6535 312.78 52.6615C312.78 51.5225 312.78 50.5365 312.78 49.7035C312.78 48.8705 312.78 48.012 312.78 47.128C312.78 45.445 312.78 43.966 312.78 42.691C312.78 41.399 312.78 40.192 312.78 39.07C312.78 37.931 312.78 36.758 312.78 35.551L320.405 35.3215C320.405 37.1405 320.405 38.934 320.405 40.702C320.405 42.453 320.405 44.272 320.405 46.159V50.392C320.405 51.871 320.651 52.993 321.144 53.758C321.637 54.506 322.521 54.88 323.796 54.88C324.493 54.88 325.139 54.7355 325.734 54.4465C326.346 54.1405 326.899 53.741 327.392 53.248C327.885 52.738 328.335 52.177 328.743 51.565V46.159C328.743 44.272 328.743 42.487 328.743 40.804C328.743 39.104 328.743 37.353 328.743 35.551H336.368C336.368 37.353 336.368 39.138 336.368 40.906C336.368 42.674 336.368 44.748 336.368 47.128V49.984C336.368 52.092 336.368 54.0045 336.368 55.7215C336.368 57.4215 336.368 59.181 336.368 61H329.967L329.636 56.9455H328.973C328.412 57.7615 327.723 58.535 326.907 59.266C326.108 59.98 325.173 60.558 324.102 61C323.048 61.459 321.858 61.6885 320.532 61.6885ZM350.638 61.663C349.38 61.663 348.181 61.5865 347.042 61.4335C345.903 61.2975 344.858 61.102 343.906 60.847C342.954 60.575 342.121 60.269 341.407 59.929L341.891 53.4775C342.639 53.9365 343.472 54.3445 344.39 54.7015C345.325 55.0415 346.277 55.305 347.246 55.492C348.232 55.679 349.193 55.7725 350.128 55.7725C350.808 55.7725 351.42 55.713 351.964 55.594C352.508 55.458 352.933 55.2285 353.239 54.9055C353.545 54.5655 353.698 54.064 353.698 53.401C353.698 52.925 353.528 52.534 353.188 52.228C352.865 51.922 352.312 51.6415 351.53 51.3865C350.765 51.1145 349.711 50.8085 348.368 50.4685C346.855 50.0775 345.58 49.5845 344.543 48.9895C343.506 48.3775 342.724 47.5955 342.197 46.6435C341.67 45.6915 341.407 44.476 341.407 42.997C341.407 40.43 342.24 38.441 343.906 37.03C345.589 35.602 347.875 34.888 350.765 34.888C352.023 34.888 353.23 34.973 354.386 35.143C355.542 35.313 356.588 35.5425 357.523 35.8315C358.475 36.1035 359.274 36.384 359.92 36.673L359.41 43.1755C358.628 42.6825 357.778 42.2745 356.86 41.9515C355.942 41.6115 355.058 41.3565 354.208 41.1865C353.375 41.0165 352.686 40.9315 352.142 40.9315C351.598 40.9315 351.097 41.008 350.638 41.161C350.196 41.297 349.847 41.5265 349.592 41.8495C349.337 42.1725 349.21 42.5975 349.21 43.1245C349.21 43.5665 349.32 43.9575 349.541 44.2975C349.762 44.6205 350.179 44.9265 350.791 45.2155C351.403 45.4875 352.295 45.785 353.468 46.108C355.304 46.601 356.809 47.1365 357.982 47.7145C359.155 48.2755 360.022 48.998 360.583 49.882C361.161 50.766 361.45 51.939 361.45 53.401C361.45 55.033 361.076 56.478 360.328 57.736C359.597 58.977 358.432 59.946 356.834 60.643C355.253 61.323 353.188 61.663 350.638 61.663Z" fill="#005F2D"/>
<path d="M79.6009 34.6131C79.3746 33.1069 79.0896 31.6219 78.7249 30.1538C78.2932 28.4185 77.7189 26.7171 77.0315 25.0624C76.3274 23.3695 75.5226 21.7318 74.634 20.1364C73.7538 18.5539 72.7478 17.0561 71.6664 15.6178C70.3586 13.8825 68.8497 12.3168 67.2737 10.8234C65.7731 9.402 64.1678 8.12066 62.4577 6.95387C60.9697 5.93983 59.4398 5.01913 57.8386 4.21299C56.5057 3.54262 55.1225 2.98256 53.7267 2.44796C52.0166 1.79456 50.2687 1.31087 48.4957 0.899313C47.0036 0.555641 45.4904 0.267126 43.9689 0.169541C42.0366 0.0464977 40.1001 -0.0553309 38.1469 0.0337691C35.2673 0.169541 32.4465 0.568369 29.6633 1.3236C28.2382 1.7097 26.8382 2.15944 25.455 2.66859C23.6652 3.33047 21.9761 4.22147 20.3037 5.13793C17.969 6.41927 15.8439 8.00186 13.8068 9.71598L13.79 9.73295C13.7649 9.75416 13.7397 9.77538 13.7146 9.79235C13.7146 9.79659 13.7104 9.79659 13.7104 9.80083L12.6877 10.7088C12.52 10.8403 12.3985 11.0355 12.2392 11.1798C10.9189 12.4059 9.72428 13.7594 8.61773 15.185C7.20519 17.001 5.97288 18.9442 4.84537 20.9638C3.78911 22.8604 2.92566 24.8375 2.19214 26.8741C1.51731 28.741 1.00175 30.6672 0.649668 32.6232C0.272432 34.7404 0.0670483 36.883 0.0125587 39.0384C-0.0209734 40.324 0.0209417 41.6096 0.0418993 42.8994C0.0754313 44.7111 0.326922 46.4973 0.662243 48.2624C1.08978 50.4983 1.73946 52.6749 2.52746 54.8176C3.61726 57.7706 5.05494 60.5285 6.76508 63.1548C8.45426 65.7514 10.5291 68.0171 12.7086 70.1852C14.0541 71.526 15.5631 72.6885 17.1307 73.762C19.0923 75.1027 21.121 76.3289 23.288 77.309C25.585 78.3485 27.9406 79.2055 30.3926 79.7953C32.262 80.2493 34.144 80.5845 36.0595 80.7924C36.8769 80.8815 37.6942 80.839 38.5116 80.9197C40.2007 81.0851 41.9025 80.9706 43.5749 80.7966C44.9288 80.6566 46.2994 80.5336 47.6449 80.2323C48.6299 80.0117 49.6191 79.8038 50.5873 79.528C51.9998 79.1249 53.3872 78.6328 54.7662 78.1194C55.8979 77.6951 56.9919 77.1987 58.065 76.6683C59.7751 75.8197 61.4098 74.8269 62.9648 73.711C64.8259 72.3745 66.5947 70.9277 68.1749 69.2476C69.0886 68.2802 70.0862 67.3807 70.8742 66.3115C71.3772 65.6284 71.876 64.9326 72.3915 64.2664C73.4101 62.9511 74.2484 61.5171 75.0615 60.083C75.9669 58.4834 76.7381 56.799 77.392 55.0637C77.9076 53.6975 78.3728 52.3101 78.7039 50.8844C78.8506 50.2607 79.0896 49.6583 79.1692 49.0261C79.2908 48.0672 79.4878 47.121 79.6135 46.1621C79.777 44.9275 79.9404 43.6886 79.974 42.4539C80.041 39.836 79.9991 37.2224 79.6009 34.6131ZM50.9142 4.81972C51.1448 4.67546 51.4633 4.69243 51.7316 4.80699C53.7016 5.6301 55.7009 6.3726 57.562 7.44605C58.3793 7.917 59.1883 8.40493 59.9889 8.90135C61.2966 9.71598 62.5121 10.6536 63.7193 11.6083C64.3271 12.092 64.8971 12.6308 65.463 13.1654C65.5719 13.2673 65.7648 13.4073 65.6725 13.6109C65.5929 13.7934 65.4043 13.6831 65.266 13.6873C64.9642 13.7 64.6624 13.6915 64.2768 13.6915C63.3882 13.8825 62.6756 13.4327 61.9379 12.826C61.1289 12.1556 60.2362 11.5786 59.3476 11.0016C58.7272 10.6027 58.0398 10.2803 57.4781 9.8475C56.3422 8.97347 55.001 8.511 53.8231 7.74729C53.2782 7.39513 52.6453 7.26785 52.0627 7.01327C51.9076 6.94539 51.7651 6.86477 51.6561 6.73325C51.3376 6.35139 51.0568 5.94832 50.9142 5.46463C50.8556 5.23976 50.6837 4.96397 50.9142 4.81972ZM19.8845 8.85043C21.1964 8.15036 22.4539 7.35695 23.7952 6.70355C24.5916 6.31745 25.4089 5.93983 26.2179 5.60464C27.0939 5.23976 27.9993 4.89609 28.9382 4.65C30.0447 4.36149 31.1261 3.99236 32.2536 3.76324C33.3895 3.52989 34.5254 3.30926 35.6781 3.18621C37.6062 2.97831 39.5427 2.86376 41.4833 2.96134C42.8623 3.03347 44.2497 3.09287 45.6162 3.3432C46.2156 3.45351 46.706 3.6699 47.1 4.15783C47.561 4.73062 48.085 5.25249 48.4329 5.91013C48.6173 6.25805 48.5921 6.4914 48.1269 6.6399C47.1503 6.94963 46.1653 7.26785 45.2473 7.71335C43.6378 8.49403 41.9402 9.12622 40.4774 10.1742C39.9283 10.5688 39.4211 10.8064 38.7631 10.7343C36.332 10.3057 33.8758 10.3142 31.4195 10.2972C29.525 10.2845 27.6304 10.3142 25.7568 10.5603C24.4532 10.73 23.1287 10.73 21.8503 11.1161C21.427 11.2434 20.9659 11.2604 20.5216 11.3198C20.3833 11.3367 20.1989 11.324 20.1779 11.184C20.0815 10.5518 19.6204 10.0384 19.6121 9.38079C19.5995 9.13895 19.654 8.97348 19.8845 8.85043ZM9.53986 61.6146C9.03688 61.4874 8.88598 61.0249 8.65126 60.6558C8.15666 59.8708 7.73332 59.0435 7.28902 58.2246C6.37527 56.5359 5.67109 54.7709 5.00884 52.9719C4.36754 51.2239 3.93581 49.4249 3.56277 47.6132C3.28194 46.2512 3.11847 44.8638 3.01787 43.4679C2.91308 42.0466 2.84183 40.6252 2.9047 39.2081C2.97176 37.6085 3.06817 36.009 3.33223 34.4222C3.44121 33.7603 3.93162 33.773 4.36334 33.6033C5.15554 33.2893 6.03156 33.3063 6.80699 32.9074C7.31417 32.6486 7.62015 32.8735 7.76266 33.4421C8.04349 34.5749 8.45007 35.6653 8.83988 36.7642C9.17101 37.6934 9.44345 38.648 9.83326 39.5518C11.0907 42.4666 12.3985 45.3602 14.2343 47.9696C14.5529 48.4236 14.8337 48.8945 15.2361 49.2806C15.5253 49.5564 15.4415 49.9468 15.3367 50.2395C15.014 51.1645 15.0894 52.1488 14.8673 53.0907C14.5948 54.2363 14.708 55.4328 14.5697 56.5953C14.4649 57.4694 14.5655 58.3434 14.4062 59.2089C14.2553 60.0066 14.5319 60.817 14.4355 61.6316C14.4062 61.8777 14.3475 61.9541 14.1212 61.9626C13.4883 61.9838 12.8553 62.0898 12.1344 61.9923C11.2835 62.1747 10.4201 61.8353 9.53986 61.6146ZM30.007 76.4689C29.8687 76.7107 29.6214 76.5495 29.4621 76.4986C27.0143 75.7094 24.6251 74.8015 22.3617 73.5371C20.6348 72.574 18.9498 71.5429 17.3989 70.3167C15.475 68.7978 13.6895 67.1176 12.0715 65.2635C11.9416 65.115 11.8117 64.975 11.8829 64.7798C11.95 64.6016 12.147 64.6907 12.2853 64.6695C12.4152 64.6483 12.5536 64.6653 12.6877 64.6653C13.4799 64.5974 14.2805 64.6356 15.0433 64.3428C15.3996 64.207 15.7517 64.1476 16.0912 64.5083C16.9546 65.4247 17.9774 66.1587 18.954 66.9479C21.3851 68.8996 24.0215 70.478 26.9053 71.6363C27.0143 71.6787 27.119 71.7381 27.2322 71.7508C27.9825 71.8442 28.2508 72.3406 28.41 73.0322C28.628 74.0038 29.1016 74.8736 29.6675 75.6882C29.7262 75.7688 29.8016 75.841 29.8561 75.9216C29.9651 76.0828 30.1244 76.2652 30.007 76.4689ZM28.4478 47.5708C26.4065 47.5793 24.361 47.575 22.3198 47.575C20.8276 47.6005 19.3396 47.6853 17.8474 47.7405C17.3528 47.7575 17.0007 47.6217 16.7367 47.1677C15.9487 45.8057 15.0433 44.5032 14.3475 43.0946C13.6392 41.652 12.9643 40.1882 12.344 38.699C11.9332 37.7146 11.5476 36.7133 11.1871 35.7205C10.7261 34.4434 10.4201 33.0899 9.95063 31.817C9.5189 30.646 9.94224 29.7508 10.4243 28.8088C11.1913 27.3154 12.0464 25.8643 12.8428 24.3878C13.4673 23.2295 14.314 22.19 14.9972 21.0614C15.7349 19.8394 16.6151 18.7193 17.3989 17.5313C18.0696 16.513 18.866 15.5881 19.524 14.5571C19.6582 14.3492 19.939 14.1583 20.2575 14.1031C21.5904 13.874 22.915 13.5685 24.2521 13.3903C26.8214 13.0509 29.4034 12.8854 31.9938 12.9193C33.6997 12.9406 35.4098 12.9363 37.1074 13.1654C37.4092 13.2079 37.7026 13.2588 37.8325 13.594C38.4026 15.045 39.1948 16.3815 39.9157 17.7562C41.2277 20.2468 42.548 22.7331 43.8641 25.2194C44.0108 25.4994 44.1366 25.8049 44.3378 26.0383C44.7443 26.5092 44.6437 26.9123 44.3294 27.3917C43.2061 29.1143 42.2085 30.9133 41.1606 32.6783C39.7564 35.0458 38.3146 37.3837 36.8978 39.7427C36.0218 41.2022 35.1877 42.6915 34.2949 44.1425C33.6913 45.1184 33.1506 46.124 32.6309 47.1465C32.5219 47.3629 32.3542 47.4053 32.1405 47.4308C30.9249 47.5623 29.6842 47.5623 28.4478 47.5708ZM62.4074 70.4101C60.5715 71.6532 58.7607 72.9431 56.774 73.9359C54.695 74.9754 52.5531 75.8579 50.3232 76.5156C49.1412 76.8635 47.9383 77.1265 46.7227 77.3557C44.4216 77.7884 42.1121 78.0218 40.381 78.0175C38.2182 77.9921 36.6631 77.9072 35.1123 77.763C34.8482 77.7375 34.6093 77.6102 34.45 77.4405C33.7416 76.6853 32.9536 76.0234 32.3584 75.1366C31.8052 74.3178 31.4824 73.3928 30.9585 72.5697C30.7782 72.2854 30.8663 72.0478 31.1513 71.9163C32.283 71.3902 33.2596 70.6265 34.3033 69.9603C35.1248 69.4342 35.8541 68.7893 36.6883 68.2929C37.0948 68.0511 37.4176 67.6734 37.8074 67.3934C38.6415 66.7867 39.4505 66.1503 40.2343 65.4757C40.4187 65.3187 40.6618 65.2423 40.9343 65.2805C42.3887 65.4884 43.8557 65.5987 45.3186 65.6878C47.2928 65.8108 49.267 65.8702 51.2412 65.8151C52.6453 65.7769 54.0537 65.849 55.4578 65.692C56.9961 65.5223 58.547 65.429 60.0853 65.2635C60.4751 65.2211 60.8607 65.0895 61.2589 65.0301C61.5397 64.992 61.6655 65.0471 61.7828 65.3271C62.2648 66.4897 62.5163 67.7244 62.9061 68.9124C63.1744 69.7185 63.0822 69.9561 62.4074 70.4101ZM70.5179 48.6612C70.1281 49.5098 69.7383 50.3626 69.3485 51.2111C69.1012 51.75 68.7868 52.2761 68.4934 52.8022C67.7515 54.126 67.0012 55.4455 66.2132 56.7438C65.266 58.3052 64.2349 59.8114 63.1283 61.2625C63.0361 61.3813 62.9564 61.5043 62.8852 61.6401C62.7301 61.9371 62.508 62.0941 62.1391 62.1959C60.9948 62.5099 59.8128 62.5269 58.6685 62.8111C57.956 62.9893 57.2015 62.8663 56.468 62.9724C55.8435 63.0615 55.2021 63.0487 54.5692 63.0827C52.1968 63.35 49.8161 63.2778 47.4395 63.1972C46.1066 63.1506 44.7779 63.0021 43.445 62.9087C42.8288 62.8663 42.2085 62.8323 41.5923 62.8026C41.3199 62.7899 41.1438 62.7093 41.0181 62.425C40.5822 61.4195 40.1588 60.4054 39.6307 59.4465C39.2451 58.7507 38.8762 58.0337 38.5493 57.3251C38.1218 56.4044 37.6272 55.5176 37.2164 54.5842C36.8601 53.7738 36.4452 52.9931 36.0134 52.2167C35.6236 51.5209 35.435 50.6978 34.9991 50.0359C34.3075 48.9879 34.9362 48.2496 35.4098 47.452C36.1517 46.2173 36.9146 44.9954 37.6649 43.7607C38.2307 42.8273 38.7966 41.8938 39.3541 40.9562C40.1546 39.6112 40.9468 38.2619 41.7516 36.9212C42.8162 35.1392 43.8809 33.353 44.9204 31.554C45.4779 30.5866 46.094 29.6574 46.5802 28.6519C46.6724 28.4609 46.7856 28.4058 46.9658 28.41C48.0137 28.4524 49.0658 28.4906 50.1137 28.5458C51.0316 28.5925 51.9495 28.6985 52.8675 28.6985C54.1249 28.6985 55.3698 28.9022 56.6189 28.8937C57.6919 28.8852 58.7566 28.9573 59.8212 29.0337C60.823 29.1058 61.8247 29.1398 62.8307 29.1228C63.1073 29.1186 63.2498 29.2883 63.3924 29.4835C63.866 30.1411 64.1762 30.8921 64.5744 31.5922C65.6977 33.5608 66.7581 35.5677 67.6635 37.651C68.5018 39.573 69.2772 41.5162 69.8641 43.5358C70.2036 44.7068 70.5389 45.8736 70.8323 47.0531C70.9832 47.6429 70.7485 48.1648 70.5179 48.6612ZM76.9393 44.6602C76.9184 45.042 76.8387 45.4154 76.801 45.7973C76.78 46.0179 76.6627 46.0264 76.4908 46.0136C75.5855 45.9415 74.6843 46.0221 73.7831 46.0858C73.4729 46.107 73.2298 46.0815 73.1544 45.6997C72.7478 43.6419 72.1736 41.6393 71.3814 39.696C70.979 38.7032 70.6101 37.6892 70.1742 36.7091C69.6587 35.555 69.1138 34.4179 68.5312 33.2978C67.739 31.7789 66.9132 30.2769 66.0246 28.8131C65.748 28.3591 65.5175 27.8712 65.1779 27.4723C64.5576 26.7468 64.633 25.9534 64.7672 25.1006C64.9055 24.2266 65.0229 23.3356 65.0396 22.453C65.069 20.8789 65.3624 19.3261 65.2911 17.7477C65.2785 17.4762 65.3666 17.1919 65.0815 16.9713C64.96 16.8779 64.9516 16.5894 65.0606 16.5046C65.2241 16.3773 65.4127 16.1863 65.6642 16.2585C66.6827 16.547 67.7348 16.7125 68.7114 17.1707C69.1012 17.3531 69.4407 17.5822 69.688 17.9217C71.7544 20.7729 73.3933 23.8532 74.6508 27.1584C75.2962 28.8555 75.7741 30.5951 76.2058 32.3474C76.4489 33.336 76.5537 34.367 76.7255 35.3726C76.977 36.8448 77.0399 38.3129 77.0944 39.7936C77.1321 41.4186 77.0357 43.0394 76.9393 44.6602Z" fill="#27A568"/>
</svg>
